<?xml version="1.0" standalone="no"?>
<!DOCTYPE svg PUBLIC "-//W3C//DTD SVG 20010904//EN"
 "http://www.w3.org/TR/2001/REC-SVG-20010904/DTD/svg10.dtd">
<svg version="1.0" xmlns="http://www.w3.org/2000/svg"
 width="1200.000000pt" height="1200.000000pt" viewBox="0 0 1200.000000 1200.000000"
 preserveAspectRatio="xMidYMid meet">
<metadata>
Created by potrace 1.14, written by Peter Selinger 2001-2017
</metadata>
<g transform="translate(0.000000,1200.000000) scale(0.100000,-0.100000)"
fill="#000000" stroke="none">
<path d="M4710 7793 c-183 -29 -325 -71 -455 -135 -71 -35 -184 -103 -225
-135 -331 -259 -514 -474 -935 -1098 -152 -226 -336 -487 -380 -540 -13 -16
-28 -35 -32 -40 -64 -83 -246 -281 -305 -330 -168 -141 -298 -215 -454 -260
-146 -42 -314 -49 -472 -20 -204 39 -355 148 -418 303 -47 116 -49 277 -4 394
10 26 16 48 14 48 -6 0 68 133 95 170 46 63 145 151 210 188 200 112 429 96
647 -43 46 -30 52 -32 40 -13 -27 40 -141 144 -199 181 -87 56 -176 92 -257
103 -40 6 -158 6 -177 0 -10 -3 -29 -7 -43 -10 -131 -23 -286 -120 -441 -275
-153 -154 -237 -293 -286 -473 -28 -100 -25 -327 5 -438 29 -104 87 -232 150
-325 49 -73 228 -260 297 -311 22 -16 48 -36 57 -44 31 -28 227 -141 325 -187
201 -94 409 -160 693 -219 80 -16 221 -37 330 -49 30 -4 71 -8 90 -11 190 -23
754 -22 975 1 195 20 212 22 365 45 91 14 328 67 435 97 443 124 867 345 1182
614 131 112 294 284 396 417 32 42 62 78 66 80 4 1 23 -19 41 -45 88 -124 302
-350 445 -469 54 -45 85 -68 205 -156 103 -75 352 -212 515 -283 17 -7 50 -22
75 -33 152 -67 517 -171 720 -206 14 -2 36 -7 50 -10 14 -3 43 -8 65 -11 22
-3 54 -8 70 -10 36 -6 88 -13 170 -21 33 -3 74 -8 90 -10 178 -22 840 -22 975
0 14 3 57 7 95 11 39 3 77 8 85 10 8 2 36 6 62 10 202 25 573 117 703 174 11
5 61 26 110 46 144 60 290 143 413 234 272 202 438 446 499 731 4 19 7 94 6
165 0 157 -21 245 -89 382 -52 105 -96 164 -203 276 -136 140 -278 234 -421
279 -58 17 -98 23 -175 22 -138 0 -237 -34 -371 -125 -47 -32 -176 -160 -169
-167 2 -3 22 6 43 20 37 25 137 78 147 78 3 0 10 3 17 5 57 21 154 34 227 31
136 -5 256 -57 366 -157 150 -137 239 -335 236 -524 -3 -146 -45 -250 -142
-345 -53 -52 -168 -120 -202 -120 -8 0 -17 -3 -21 -7 -3 -4 -12 -8 -19 -9 -7
-1 -34 -8 -62 -14 -70 -17 -286 -20 -370 -5 -161 28 -296 87 -449 196 -89 64
-287 252 -341 324 -17 22 -38 49 -48 60 -59 64 -245 323 -452 630 -134 198
-279 407 -305 438 -6 7 -54 68 -108 137 -54 69 -115 143 -136 165 -124 132
-158 164 -231 229 -185 161 -345 256 -540 322 -92 30 -131 40 -240 61 -51 9
-336 11 -415 2 -228 -24 -411 -75 -585 -164 -111 -56 -183 -106 -274 -191
l-62 -57 -52 49 c-28 27 -54 52 -57 55 -11 13 -148 109 -155 109 -4 0 -19 8
-33 18 -88 61 -348 146 -512 167 -30 4 -64 9 -75 12 -26 6 -373 11 -405 6z"/>
</g>
</svg>
